<svg width="502" height="323" viewBox="0 0 502 323" fill="none" xmlns="http://www.w3.org/2000/svg">
<g clip-path="url(#clip0_27_96)">
<path d="M74.7767 290.612V251.564C74.7767 247.279 68.1245 247.273 68.1245 251.564V290.612C68.1245 294.897 74.7767 294.903 74.7767 290.612V251.564C74.7767 247.279 68.1245 247.273 68.1245 251.564V290.612C68.1245 294.897 74.7767 294.903 74.7767 290.612Z" fill="#114B5F"/>
<path d="M183.879 168.96L154.565 153.624C153.972 153.313 153.334 153.169 152.713 153.169C151.255 153.169 149.842 153.962 149.127 155.344C145.407 162.521 139.021 166.107 132.108 166.107C111.63 166.107 95.1436 143.1 95.1436 114.603C95.1436 89.2757 110.832 68.5831 130.245 68.5831C136.609 68.5831 142.175 71.9357 146.427 77.6084C146.455 77.6472 146.482 77.675 146.51 77.7138C148.14 79.5955 150.939 79.9174 152.952 78.4576L157.952 74.8275L157.913 74.7609L157.73 74.4001L157.713 74.3724C157.702 74.3502 157.592 74.1337 157.58 74.1115C156.012 71.0309 154.448 67.806 152.902 64.4479C151.405 61.2008 149.98 57.9371 148.633 54.6789L148.544 54.4624C148.079 53.3689 148.09 52.0978 148.567 50.9877C149.049 49.8776 149.964 49.0006 151.094 48.5788L165.275 43.3168C155.529 36.7227 143.428 32.915 129.985 32.915C98.5252 32.915 72.4429 52.5308 60.9844 81.788C56.9487 92.0954 54.7257 103.602 54.7257 115.874C54.7257 128.146 56.921 140.38 60.9844 150.909C72.8974 181.815 100.853 201.786 136.365 201.786C145.939 201.786 155.513 198.883 163.955 193.743C172.398 188.598 179.71 181.205 184.766 172.235C185.481 171.097 185.076 169.593 183.89 168.971L183.879 168.96Z" fill="#426A5A"/>
<path d="M61.7937 64.7699H64.9037C66.3616 64.7699 67.7475 64.4424 68.9837 63.854C70.6357 61.4506 72.4096 59.1471 74.3055 56.9435C74.4164 56.3774 74.4663 55.789 74.4663 55.1951V53.6076C74.4663 36.2953 60.4467 22.2579 43.1619 22.2579H12.994C5.81516 22.2579 0 28.086 0 35.2685V51.7648C0 55.356 1.45795 58.6087 3.80841 60.9621C6.15886 63.3156 9.40183 64.7754 12.994 64.7754V169.415H0V186.222C0 200.698 11.7135 212.432 26.171 212.432H61.7937C68.7952 212.432 74.4663 206.748 74.4663 199.738V182.109C74.4663 178.601 73.0471 175.432 70.7521 173.134C68.4571 170.836 65.2917 169.415 61.7882 169.415V156.11C56.3611 144.043 53.4951 130.356 53.4951 115.869C53.4951 101.382 56.3666 88.4487 61.7882 76.576V64.7699H61.7937Z" fill="#426A5A"/>
<path d="M391.673 169.815C391.673 169.815 391.645 169.793 391.634 169.781C370.901 155.222 353.622 136.228 339.796 114.914H339.264C350.168 106.044 359.742 96.0752 367.985 85.4902C376.228 74.9108 383.141 63.7208 388.729 52.4309C389.311 51.2708 388.834 49.8554 387.665 49.2948L357.53 34.7634C356.948 34.4803 356.333 34.3526 355.728 34.3526C354.221 34.3526 352.768 35.1741 352.025 36.6006C342.368 56.4551 329.02 74.1115 311.979 88.0379C310.443 89.2924 308.148 88.1989 308.148 86.2173V59.3025C308.148 47.5797 298.658 38.0771 286.944 38.0771H267.193V43.1114L278.352 49.6112C279.4 50.2162 280.137 51.2098 280.431 52.3865C280.719 53.5688 280.525 54.7899 279.876 55.8223C275.99 62.0778 272.332 68.5665 269.005 75.0884C268.407 76.2429 267.814 77.4252 267.198 78.6907V171.78C267.198 183.508 276.689 193.011 288.397 193.011H307.162C307.705 193.011 308.148 192.567 308.148 192.023V140.125C308.148 139.642 308.769 139.448 309.041 139.842C316.563 150.682 325.228 161.15 334.885 171.036C344.542 180.922 355.18 190.219 366.655 198.7C369.038 200.36 372.298 199.855 374.077 197.557L392.194 174.083C392.626 173.528 392.837 172.862 392.837 172.207C392.837 171.297 392.438 170.403 391.673 169.798V169.815ZM277.332 51.3763L267.198 45.4704V74.1726C270.569 67.5618 274.227 61.0732 278.158 54.7455C278.884 53.591 278.513 52.0645 277.332 51.3763Z" fill="#426A5A"/>
<path d="M164.981 43.1003C168.252 45.9311 178.74 56.6271 178.358 58.6531C177.975 60.6791 159.288 72.8959 157.553 75.1273C155.818 77.3586 142.23 47.3021 142.23 47.3021L164.981 43.1003Z" fill="#426A5A"/>
<path d="M277.332 51.3763L267.198 45.4704L265.164 44.2882L249.326 35.052C248.589 34.6246 247.785 34.4192 246.986 34.4192C245.44 34.4192 243.938 35.1907 243.056 36.595C232.978 53.1858 224.713 69.7765 218.055 86.8668C217.362 88.6596 214.95 88.9538 213.853 87.3774C208.825 80.1561 204.146 72.5962 199.866 64.7754C195.587 56.9491 191.706 48.8619 188.275 40.6026C187.532 38.8319 185.525 37.966 183.729 38.6321L169.006 44.105C173.03 47.2633 176.645 50.96 179.732 55.1285C180.475 56.1165 180.791 57.3487 180.608 58.592C180.425 59.8354 179.76 60.9233 178.751 61.656L160.347 75.0162C171.661 96.8412 186.152 117.639 203.703 136.855H203.437C201.441 146.352 199.911 155.905 198.852 165.452C197.788 175.005 197.189 184.557 197.056 194.054C197.056 195.686 198.375 197.013 200.011 197.013H234.796C235.611 197.013 236.348 196.685 236.881 196.147C237.418 195.614 237.745 194.876 237.745 194.06C237.878 169.787 241.465 145.459 248.284 121.946C252.624 106.965 258.273 92.323 265.175 78.2356C265.84 76.8757 266.511 75.5213 267.209 74.1781C270.58 67.5674 274.238 61.0787 278.169 54.751C278.895 53.5965 278.524 52.0701 277.343 51.3818L277.332 51.3763Z" fill="#426A5A"/>
<path d="M62.1818 10.7015L66.7885 14.8978C66.9825 14.9699 67.1488 15.031 67.3428 15.1032C110.311 14.2151 405.692 -11.6118 426.636 15.2086C445.04 38.782 453.245 268.138 441.697 287.893C419.529 325.831 116.874 275.964 68.6289 288.603C65.9126 290.807 64.56 291.911 61.8436 294.115V300.182C64.1608 302.341 65.4913 303.573 67.8085 305.727L437.95 312.992C447.867 310.35 447.867 305.854 452.313 300.204V12.7941C448.483 6.52194 446.01 1.46536 438.055 0L67.9692 4.75686C65.641 6.86608 64.2883 8.08166 61.96 10.1909C62.0377 10.3685 62.1042 10.5184 62.1818 10.696V10.7015Z" fill="#114B5F"/>
<path d="M501.861 302.335V313.792C501.861 318.449 497.87 322.284 492.759 322.539C491.634 322.595 490.287 322.645 488.64 322.689L368.988 322.451L369.914 322.367C369.842 322.351 369.781 322.34 369.709 322.323L365.962 321.968L365.696 321.951C432.124 322.129 488.463 321.823 492.088 320.341C501.18 316.617 507.427 297.112 478.224 294.886C462.225 293.665 352.896 293.932 263.29 294.32H263.102L162.908 293.887L488.74 293.465C490.27 293.493 491.584 293.543 492.731 293.599C497.848 293.848 501.861 297.678 501.861 302.341V302.335Z" fill="#114B5F"/>
<path d="M478.224 294.886C507.427 297.118 501.18 316.622 492.088 320.341C488.463 321.823 432.124 322.129 365.696 321.951H365.618C365.258 321.929 364.897 321.918 364.543 321.895C361.738 321.895 357.896 321.895 353.156 321.912H352.74C269.388 321.623 174.849 320.68 149.176 320.413C148.855 320.413 148.533 320.425 148.206 320.447L142.447 320.919V321.49L147.458 321.962C147.779 321.99 148.101 322.006 148.428 322.006L242.003 322.195C153.839 322.367 49.8142 322.34 34.2479 321.118C5.05016 318.82 11.3476 299.327 20.4501 295.624C24.0257 294.17 78.7348 293.987 143.86 294.298L142.552 294.42C142.624 294.437 142.685 294.448 142.757 294.464L146.504 294.814C146.981 294.836 147.452 294.853 147.929 294.881C156.405 294.859 174.416 294.764 197.882 294.642H198.02C270.109 295.197 341.559 296.08 363.356 296.357C363.683 296.357 363.999 296.357 364.326 296.329L370.086 295.863V295.297L365.08 294.814C364.759 294.786 364.432 294.77 364.11 294.764L263.29 294.326C352.896 293.937 462.225 293.671 478.224 294.892V294.886Z" fill="#114B5F"/>
<path d="M370.086 295.297V295.863L364.326 296.329C363.999 296.357 363.683 296.363 363.356 296.357C341.559 296.08 270.109 295.197 198.02 294.642C216.902 294.548 239.303 294.437 263.102 294.326H263.29L364.11 294.764C364.432 294.764 364.759 294.786 365.08 294.814L370.086 295.297Z" fill="#114B5F"/>
<path d="M369.914 322.367L368.989 322.451H368.983L242.557 322.195C288.679 322.106 330.394 321.962 352.74 321.912H353.156C357.342 321.929 361.499 321.94 365.618 321.951H365.696L365.962 321.968L369.709 322.323C369.781 322.339 369.842 322.351 369.914 322.367Z" fill="#114B5F"/>
<path d="M368.983 322.45L364.853 322.817C364.537 322.845 364.221 322.856 363.905 322.856L23.7263 322.506C22.1908 322.473 20.8825 322.423 19.7294 322.367C14.6183 322.112 10.6103 318.265 10.6269 313.608L10.6547 302.152C10.6658 297.495 14.6737 293.665 19.7793 293.426C20.9102 293.376 22.2573 293.327 23.8982 293.288L162.57 293.887L148.561 293.909C148.245 293.909 147.929 293.926 147.613 293.954L143.882 294.298C143.882 294.298 143.871 294.298 143.86 294.298C78.7348 293.987 24.0257 294.17 20.4501 295.624C11.3476 299.327 5.05016 318.815 34.2479 321.118C49.8142 322.345 153.839 322.367 242.003 322.195H242.557L368.983 322.45Z" fill="#114B5F"/>
<path d="M364.543 321.895C364.897 321.918 365.258 321.929 365.618 321.951C361.499 321.94 357.342 321.923 353.156 321.912C357.896 321.901 361.738 321.895 364.543 321.895Z" fill="#114B5F"/>
<path d="M352.74 321.912C330.394 321.962 288.679 322.106 242.557 322.195H242.003L148.428 322.006C148.101 322.006 147.779 321.99 147.458 321.962L142.447 321.49V320.919L148.206 320.447C148.533 320.419 148.855 320.408 149.176 320.413C174.849 320.68 269.388 321.623 352.74 321.912Z" fill="#114B5F"/>
<path d="M162.908 293.887L263.102 294.32C239.303 294.431 216.902 294.542 198.02 294.636H197.882C179.655 294.498 161.394 294.376 143.882 294.292L147.613 293.948C147.929 293.92 148.245 293.904 148.561 293.904L162.57 293.882H162.908V293.887Z" fill="#114B5F"/>
<path d="M197.882 294.642C174.416 294.764 156.405 294.859 147.929 294.881C147.452 294.853 146.981 294.836 146.504 294.814L142.757 294.464C142.685 294.448 142.624 294.437 142.552 294.42L143.86 294.298C143.86 294.298 143.877 294.298 143.882 294.298C161.394 294.381 179.655 294.498 197.882 294.642Z" fill="#114B5F"/>
<path d="M246.36 297.6C246.36 297.6 353.966 292.078 367.375 290.335C380.785 288.592 436.026 290.335 439.22 290.335C442.413 290.335 444.331 293.582 444.331 293.582L441.753 297.007L241.249 305.443L246.36 297.6Z" fill="#114B5F"/>
<path d="M79.3113 270.958V212.166C86.6454 209.313 94.9995 207.67 101.774 207.67C122.202 207.67 137.779 222.107 137.779 240.957C137.779 261.1 121.753 275.97 99.8556 275.97C93.536 275.97 85.071 274.238 80.2149 271.474L79.3113 270.952V270.958ZM96.5794 260.928C97.932 261.189 98.6139 261.272 99.8501 261.272C112.151 261.272 120.394 253.146 120.394 240.957C120.394 230.15 112.717 222.368 102.106 222.368C100.188 222.368 98.7192 222.629 96.5739 222.973V260.928H96.5794Z" fill="#426A5A"/>
<path d="M144.548 274.677V259.89H149.176V223.922H144.548V209.313H171.073V223.922H166.561V259.89H171.073V274.677H144.548Z" fill="#426A5A"/>
<path d="M217.916 274.332V273.211C215.882 274.077 213.626 274.51 211.142 274.51C207.982 274.51 205.271 273.905 202.677 273.211C185.974 268.804 177.958 253.068 177.958 239.752C177.958 224.538 189.245 207.675 209.789 207.675C218.482 207.675 225.932 211.133 230.672 216.839L231.348 217.616L218.027 227.213L216.785 225.743C214.978 223.583 212.611 222.373 210.011 222.373C200.532 222.373 195.227 231.537 195.227 239.835C195.227 249 200.194 259.546 211.031 259.546C213.964 259.546 217.916 257.559 217.916 256.088V249.516H211.142V234.735H235.184V274.332H217.916Z" fill="#426A5A"/>
<path d="M242.518 274.677V259.89H247.147V223.922H242.518V209.313H269.044V223.922H264.532V259.89H269.044V274.677H242.518Z" fill="url(#paint0_linear_27_96)"/>
<path d="M287.665 273.639V223.406H275.026V208.708H319.158V223.406H304.939V273.639H287.67H287.665Z" fill="#114B5F"/>
<path d="M325.028 271.824L346.476 212.599L362.054 208.708L385.081 271.824L368.939 277.013L364.083 263.353H346.133L341.282 277.013L325.028 271.824ZM350.423 251.075H359.681L355.168 235.684L350.429 251.075H350.423Z" fill="#114B5F"/>
<path d="M393.086 274.244V209.402H410.243V259.634H436.658V274.244H393.086Z" fill="#114B5F"/>
</g>
<defs>
<linearGradient id="paint0_linear_27_96" x1="242.518" y1="241.995" x2="269.044" y2="241.995" gradientUnits="userSpaceOnUse">
<stop offset="0.23" stop-color="#426A5A"/>
<stop offset="0.47" stop-color="#2A5B5C"/>
<stop offset="0.73" stop-color="#174F5E"/>
<stop offset="0.92" stop-color="#114B5F"/>
</linearGradient>
<clipPath id="clip0_27_96">
<rect width="502" height="323" fill="white"/>
</clipPath>
</defs>
</svg>
