<svg width="50" height="50" viewBox="0 0 50 50" fill="none" xmlns="http://www.w3.org/2000/svg">
<g clip-path="url(#clip0_187_134)">
<path d="M48.7748 33.5178L30.7056 25.3019C30.6431 25.2727 30.5806 25.2498 30.5181 25.2269C29.0015 24.7103 27.3559 25.0915 26.2226 26.2247C25.0894 27.358 24.7082 29.0036 25.3019 30.7056L33.5178 48.7769C33.849 49.508 34.5719 49.983 35.376 49.9976H35.4156C36.203 49.9976 36.9258 49.5518 37.28 48.8456L41.1359 41.1338L48.8477 37.2779C49.5664 36.9175 50.0142 36.1801 49.9997 35.376C49.9851 34.574 49.5101 33.8511 48.7789 33.5178H48.7748ZM26.8976 45.7438C26.5393 45.775 26.1789 45.798 25.8143 45.8125C24.4228 44.4356 20.794 40.5672 18.265 35.4135H19.7899C20.9398 35.4135 21.873 34.4823 21.873 33.3303C21.873 32.1784 20.9398 31.2472 19.7899 31.2472H16.6027C15.9965 29.264 15.6236 27.1642 15.6236 24.9977C15.6236 22.8313 15.9986 20.7335 16.6068 18.7483H33.3907C33.6365 19.5545 33.8449 20.3794 34.0053 21.221C34.2219 22.3522 35.3156 23.0979 36.4405 22.8771C37.5695 22.6625 38.3111 21.571 38.0966 20.4419C37.9882 19.869 37.8591 19.3045 37.7153 18.7483H44.7835C44.8105 18.7483 44.8397 18.7483 44.8668 18.7483C45.4896 20.7231 45.825 22.8229 45.825 24.9998C45.825 25.6394 45.7959 26.2705 45.7396 26.8955C45.6376 28.0412 46.4812 29.0536 47.627 29.1578C48.7769 29.2703 49.7872 28.4162 49.8892 27.2705C49.9559 26.5226 49.9913 25.7643 49.9913 24.9998C49.9955 11.2136 38.7819 0 24.9977 0C11.2136 0 0 11.2136 0 24.9977C0 38.7819 11.2136 49.9955 24.9957 49.9955C25.7602 49.9955 26.5164 49.9601 27.2621 49.8934C28.4079 49.7913 29.2557 48.781 29.1536 47.6332C29.0515 46.4896 28.0454 45.6438 26.8976 45.7438ZM12.2739 31.2472H5.20786C5.18078 31.2472 5.1537 31.2472 5.12454 31.2472C4.50168 29.2724 4.16629 27.1726 4.16629 24.9957C4.16629 22.8188 4.50168 20.719 5.12454 18.7441C5.15162 18.7441 5.1787 18.7441 5.20786 18.7441H12.2739C11.7635 20.7335 11.4573 22.825 11.4573 24.9936C11.4573 27.1621 11.7614 29.2536 12.2739 31.243V31.2472ZM18.2754 14.582C20.4023 10.2553 23.3062 6.82438 25.0019 5.02455C26.6997 6.8223 29.6036 10.247 31.7305 14.582H18.2754ZM43.0336 14.582H36.3092C34.6615 10.6532 32.3762 7.31601 30.4098 4.88081C35.7822 6.3286 40.3026 9.87411 43.0336 14.582ZM19.5816 4.88289C17.6151 7.31809 15.3278 10.6553 13.6821 14.582H6.96187C9.69079 9.87411 14.2091 6.3286 19.5816 4.88289ZM6.96187 35.4135H13.6821C15.3278 39.3423 17.6151 42.6774 19.5816 45.1126C14.2112 43.6648 9.69288 40.1193 6.96187 35.4135Z" fill="black"/>
</g>
<defs>
<clipPath id="clip0_187_134">
<rect width="50" height="50" fill="white"/>
</clipPath>
</defs>
</svg>
