<svg width="50" height="50" viewBox="0 0 50 50" fill="none" xmlns="http://www.w3.org/2000/svg">
<path d="M39.5833 2.08337H10.4167C4.67292 2.08337 0 6.75629 0 12.5V29.1667C0 34.9105 4.67292 39.5834 10.4167 39.5834H22.9167V43.75H14.5833C13.4333 43.75 12.5 44.6834 12.5 45.8334C12.5 46.9834 13.4333 47.9167 14.5833 47.9167H35.4167C36.5667 47.9167 37.5 46.9834 37.5 45.8334C37.5 44.6834 36.5667 43.75 35.4167 43.75H27.0833V39.5834H39.5833C45.3271 39.5834 50 34.9105 50 29.1667V12.5C50 6.75629 45.3271 2.08337 39.5833 2.08337ZM41.6667 22.8709C41.6667 24.0209 40.7333 24.9542 39.5833 24.9542C38.4333 24.9542 37.5 24.0209 37.5 22.8709V19.6146L30.2 26.9146C28.3646 28.7521 25.1625 28.7521 23.3271 26.9146L19.4479 23.0355C19.1771 22.7646 18.7375 22.7646 18.4667 23.0355L11.8958 29.6063C11.4896 30.0125 10.9562 30.2167 10.4229 30.2167C9.88958 30.2167 9.35625 30.0125 8.95 29.6063C8.13542 28.7917 8.13542 27.475 8.95 26.6605L15.5208 20.0896C17.4146 18.1938 20.5 18.1938 22.3937 20.0896L26.2729 23.9688C26.6271 24.323 26.9 24.323 27.2542 23.9688L34.5542 16.6688H31.25C30.1 16.6688 29.1667 15.7355 29.1667 14.5855C29.1667 13.4355 30.1 12.5021 31.25 12.5021H38.5417C40.2646 12.5021 41.6667 13.9042 41.6667 15.6271V22.873V22.8709Z" fill="black"/>
</svg>
