<?xml version="1.0" encoding="UTF-8"?>
<svg id="Layer_3" data-name="Layer 3" xmlns="http://www.w3.org/2000/svg" viewBox="0 0 905.56 581.92">
  <defs>
    <style>
      .cls-1 {
        fill: #000;
        stroke-width: 0px;
      }
    </style>
  </defs>
  <path class="cls-1" d="M134.89,523.57v-70.35c0-7.72-12-7.73-12,0v70.35c0,7.72,12,7.73,12,0v-70.35c0-7.72-12-7.73-12,0v70.35c0,7.72,12,7.73,12,0Z"/>
  <g>
    <g>
      <path class="cls-1" d="M321.27,101.5c-5.77-7.77-12.65-14.68-20.48-20.54l-26.96,10c-2.31.86-3.45,3.48-2.49,5.75l.16.39c4.86,11.72,10.2,23.31,16.03,34.75l32.75-23.74c1.26-.92,1.93-2.34,1.93-3.79,0-.98-.31-1.97-.95-2.82ZM331.7,304.4l-52.88-27.63c-1.07-.56-2.22-.82-3.34-.82-2.63,0-5.18,1.43-6.47,3.92-6.71,12.93-18.23,19.39-30.7,19.39-36.94,0-66.68-41.45-66.68-92.79,0-45.63,28.3-82.91,63.32-82.91,11.48,0,21.52,6.04,29.19,16.26.05.07.1.12.15.19,2.94,3.39,7.99,3.97,11.62,1.34l9.02-6.54-.07-.12-.33-.65s-.03-.05-.03-.05c-.02-.04-.22-.43-.24-.47-2.83-5.55-5.65-11.36-8.44-17.41-2.7-5.85-5.27-11.73-7.7-17.6l-.16-.39c-.84-1.97-.82-4.26.04-6.26.87-2,2.52-3.58,4.56-4.34l25.58-9.48c-17.58-11.88-39.41-18.74-63.66-18.74-56.75,0-103.8,35.34-124.47,88.05-7.28,18.57-11.29,39.3-11.29,61.41s3.96,44.15,11.29,63.12c21.49,55.68,71.92,91.66,135.98,91.66,17.27,0,34.54-5.23,49.77-14.49,15.23-9.27,28.42-22.59,37.54-38.75,1.29-2.05.56-4.76-1.58-5.88Z"/>
      <path class="cls-1" d="M111.47,116.69h5.61c2.63,0,5.13-.59,7.36-1.65,2.98-4.33,6.18-8.48,9.6-12.45.2-1.02.29-2.08.29-3.15v-2.86c0-31.19-25.29-56.48-56.47-56.48H23.44C10.49,40.1,0,50.6,0,63.54v29.72c0,6.47,2.63,12.33,6.87,16.57s10.09,6.87,16.57,6.87v188.52H0v30.28c0,26.08,21.13,47.22,47.21,47.22h64.26c12.63,0,22.86-10.24,22.86-22.87v-31.76c0-6.32-2.56-12.03-6.7-16.17-4.14-4.14-9.85-6.7-16.17-6.7v-23.97c-9.79-21.74-14.96-46.4-14.96-72.5s5.18-49.4,14.96-70.79v-21.27ZM100.18,208.75c0,22.9,3.96,44.15,11.29,63.12v-124.53c-7.28,18.57-11.29,39.3-11.29,61.41Z"/>
      <path class="cls-1" d="M706.54,305.94s-.05-.04-.07-.06c-37.4-26.23-68.57-60.45-93.51-98.85h-.96c19.67-15.98,36.94-33.94,51.81-53.01,14.87-19.06,27.34-39.22,37.42-59.56,1.05-2.09.19-4.64-1.92-5.65l-54.36-26.18c-1.05-.51-2.16-.74-3.25-.74-2.72,0-5.34,1.48-6.68,4.05-17.42,35.77-41.5,67.58-72.24,92.67-2.77,2.26-6.91.29-6.91-3.28v-48.49c0-21.12-17.12-38.24-38.25-38.24h-35.63v9.07l20.13,11.71c1.89,1.09,3.22,2.88,3.75,5,.52,2.13.17,4.33-1,6.19-7.01,11.27-13.61,22.96-19.61,34.71-1.08,2.08-2.15,4.21-3.26,6.49v167.71c0,21.13,17.12,38.25,38.24,38.25h33.85c.98,0,1.78-.8,1.78-1.78v-93.5c0-.87,1.12-1.22,1.61-.51,13.57,19.53,29.2,38.39,46.62,56.2,17.42,17.81,36.61,34.56,57.31,49.84,4.3,2.99,10.18,2.08,13.39-2.06l32.68-42.29c.78-1,1.16-2.2,1.16-3.38,0-1.64-.72-3.25-2.1-4.34ZM500.28,92.56l-18.28-10.64v51.71c6.08-11.91,12.68-23.6,19.77-35,1.31-2.08.64-4.83-1.49-6.07Z"/>
      <path class="cls-1" d="M500.28,92.56l-18.28-10.64-3.67-2.13-28.57-16.64c-1.33-.77-2.78-1.14-4.22-1.14-2.79,0-5.5,1.39-7.09,3.92-18.18,29.89-33.09,59.78-45.1,90.57-1.25,3.23-5.6,3.76-7.58.92-9.07-13.01-17.51-26.63-25.23-40.72-7.72-14.1-14.72-28.67-20.91-43.55-1.34-3.19-4.96-4.75-8.2-3.55l-26.56,9.86c7.26,5.69,13.78,12.35,19.35,19.86,1.34,1.78,1.91,4,1.58,6.24-.33,2.24-1.53,4.2-3.35,5.52l-33.2,24.07c20.41,39.32,46.55,76.79,78.21,111.41h-.48c-3.6,17.11-6.36,34.32-8.27,51.52-1.92,17.21-3,34.42-3.24,51.53,0,2.94,2.38,5.33,5.33,5.33h62.75c1.47,0,2.8-.59,3.76-1.56.97-.96,1.56-2.29,1.56-3.76.24-43.73,6.71-87.56,19.01-129.92,7.83-26.99,18.02-53.37,30.47-78.75,1.2-2.45,2.41-4.89,3.67-7.31,6.08-11.91,12.68-23.6,19.77-35,1.31-2.08.64-4.83-1.49-6.07ZM321.27,101.5c-5.77-7.77-12.65-14.68-20.48-20.54l-26.96,10c-2.31.86-3.45,3.48-2.49,5.75l.16.39c4.86,11.72,10.2,23.31,16.03,34.75l32.75-23.74c1.26-.92,1.93-2.34,1.93-3.79,0-.98-.31-1.97-.95-2.82Z"/>
    </g>
    <path class="cls-1" d="M297.94,77.7c5.87,5.13,24.9,22.06,24.19,25.7s-34.76,27.92-37.91,31.92c-3.15,4-27.36-50.28-27.36-50.28l41.08-7.34Z"/>
  </g>
  <path class="cls-1" d="M112.17,19.28l8.31,7.56c.35.13.65.24,1,.37,77.51-1.6,610.35-48.13,648.13.19,33.2,42.47,48,455.68,27.17,491.27-39.99,68.35-585.95-21.49-672.98,1.28-4.9,3.97-7.34,5.96-12.24,9.93v10.93c4.18,3.89,6.58,6.11,10.76,9.99l667.7,13.09c17.89-4.76,17.89-12.86,25.91-23.04V23.05c-6.91-11.3-11.37-20.41-25.72-23.05L122.61,8.57c-4.2,3.8-6.64,5.99-10.84,9.79.14.32.26.59.4.91Z"/>
  <g>
    <path class="cls-1" d="M905.31,544.69v20.64c0,8.39-7.2,15.3-16.42,15.76-2.03.1-4.46.19-7.43.27l-215.84-.43,1.67-.15c-.13-.03-.24-.05-.37-.08l-6.76-.64-.48-.03c119.83.32,221.46-.23,228-2.9,16.4-6.71,27.67-41.85-25.01-45.86-28.86-2.2-226.08-1.72-387.72-1.02h-.34l-180.74-.78,587.77-.76c2.76.05,5.13.14,7.2.24,9.23.45,16.47,7.35,16.47,15.75Z"/>
    <path class="cls-1" d="M862.67,531.27c52.68,4.02,41.41,39.16,25.01,45.86-6.54,2.67-108.17,3.22-228,2.9h-.14c-.65-.04-1.3-.06-1.94-.1-5.06,0-11.99,0-20.54.03h-.75c-150.36-.52-320.9-2.22-367.21-2.7-.58,0-1.16.02-1.75.06l-10.39.85v1.03l9.04.85c.58.05,1.16.08,1.75.08l168.8.34c-159.04.31-346.69.26-374.77-1.94-52.67-4.14-41.31-39.26-24.89-45.93,6.45-2.62,105.14-2.95,222.62-2.39l-2.36.22c.13.03.24.05.37.08l6.76.63c.86.04,1.71.07,2.57.12,15.29-.04,47.78-.21,90.11-.43h.25c130.04,1,258.93,2.59,298.25,3.09.59,0,1.16,0,1.75-.05l10.39-.84v-1.02l-9.03-.87c-.58-.05-1.17-.08-1.75-.09l-181.87-.79c161.64-.7,358.86-1.18,387.72,1.02Z"/>
    <path class="cls-1" d="M667.6,532.01v1.02l-10.39.84c-.59.05-1.16.06-1.75.05-39.32-.5-168.21-2.09-298.25-3.09,34.06-.17,74.47-.37,117.4-.57h.34l181.87.79c.58,0,1.17.04,1.75.09l9.03.87Z"/>
    <path class="cls-1" d="M667.29,580.78l-1.67.15h-.01l-228.06-.46c83.2-.16,158.45-.42,198.76-.51h.75c7.55.03,15.05.05,22.48.07h.14l.48.03,6.76.64c.13.03.24.05.37.08Z"/>
    <path class="cls-1" d="M665.61,580.93l-7.45.66c-.57.05-1.14.07-1.71.07l-613.65-.63c-2.77-.06-5.13-.15-7.21-.25-9.22-.46-16.45-7.39-16.42-15.78l.05-20.64c.02-8.39,7.25-15.29,16.46-15.72,2.04-.09,4.47-.18,7.43-.25l250.15,1.08-25.27.04c-.57,0-1.14.03-1.71.08l-6.73.62s-.02,0-.04,0c-117.48-.56-216.17-.23-222.62,2.39-16.42,6.67-27.78,41.78,24.89,45.93,28.08,2.21,215.73,2.25,374.77,1.94h1l228.06.46Z"/>
    <path class="cls-1" d="M657.6,579.93c.64.04,1.29.06,1.94.1-7.43-.02-14.93-.05-22.48-.07,8.55-.02,15.48-.03,20.54-.03Z"/>
    <path class="cls-1" d="M636.31,579.96c-40.31.09-115.56.35-198.76.51h-1l-168.8-.34c-.59,0-1.17-.03-1.75-.08l-9.04-.85v-1.03l10.39-.85c.59-.05,1.17-.07,1.75-.06,46.31.48,216.85,2.18,367.21,2.7Z"/>
    <path class="cls-1" d="M293.87,529.47l180.74.78c-42.93.2-83.34.4-117.4.57h-.25c-32.88-.25-65.82-.47-97.41-.62l6.73-.62c.57-.05,1.14-.08,1.71-.08l25.27-.04h.61Z"/>
    <path class="cls-1" d="M356.96,530.83c-42.33.22-74.82.39-90.11.43-.86-.05-1.71-.08-2.57-.12l-6.76-.63c-.13-.03-.24-.05-.37-.08l2.36-.22s.03,0,.04,0c31.59.15,64.53.36,97.41.62Z"/>
  </g>
  <path class="cls-1" d="M444.41,536.16s194.11-9.95,218.3-13.09,123.84,0,129.6,0,9.22,5.85,9.22,5.85l-4.65,6.17-361.69,15.2,9.22-14.13Z"/>
  <g>
    <path class="cls-1" d="M143.9,488.74v-105.92c13.23-5.14,28.3-8.1,40.52-8.1,36.85,0,64.95,26.01,64.95,59.97,0,36.29-28.91,63.08-68.41,63.08-11.4,0-26.67-3.12-35.43-8.1l-1.63-.94ZM175.06,470.67c2.44.47,3.67.62,5.9.62,22.19,0,37.06-14.64,37.06-36.6,0-19.47-13.85-33.49-32.99-33.49-3.46,0-6.11.47-9.98,1.09v68.38Z"/>
    <path class="cls-1" d="M261.59,495.43v-26.64h8.35v-64.8h-8.35v-26.32h47.85v26.32h-8.14v64.8h8.14v26.64h-47.85Z"/>
    <path class="cls-1" d="M393.94,494.81v-2.02c-3.67,1.56-7.74,2.34-12.22,2.34-5.7,0-10.59-1.09-15.27-2.34-30.13-7.94-44.59-36.29-44.59-60.28,0-27.41,20.36-57.79,57.42-57.79,15.68,0,29.12,6.23,37.67,16.51l1.22,1.4-24.03,17.29-2.24-2.65c-3.26-3.89-7.53-6.07-12.22-6.07-17.1,0-26.67,16.51-26.67,31.46,0,16.51,8.96,35.51,28.51,35.51,5.29,0,12.42-3.58,12.42-6.23v-11.84h-12.22v-26.63h43.37v71.34h-31.15Z"/>
    <path class="cls-1" d="M438.32,495.43v-26.64h8.35v-64.8h-8.35v-26.32h47.85v26.32h-8.14v64.8h8.14v26.64h-47.85Z"/>
    <path class="cls-1" d="M519.76,493.57v-90.5h-22.8v-26.48h79.61v26.48h-25.66v90.5h-31.15Z"/>
    <path class="cls-1" d="M587.15,490.3l38.69-106.7,28.1-7.01,41.54,113.71-29.12,9.35-8.75-24.61h-32.37l-8.76,24.61-29.32-9.35ZM632.97,452.91h16.7l-8.14-27.73-8.55,27.73Z"/>
    <path class="cls-1" d="M709.93,494.66v-116.82h30.95v90.5h47.65v26.32h-78.6Z"/>
  </g>
</svg>